<?xml version="1.0" encoding="utf-8"?>
<!-- Uploaded to: SVG Repo, www.svgrepo.com, Generator: SVG Repo Mixer Tools -->
<svg width="800px" height="800px" viewBox="0 0 64 64" xmlns="http://www.w3.org/2000/svg" xmlns:xlink="http://www.w3.org/1999/xlink" aria-hidden="true" role="img" class="iconify iconify--emojione" preserveAspectRatio="xMidYMid meet">
<path fill="#89664c" d="M32 64L0 44.8V19.2l32 19.2z">
</path>
<path fill="#fed0ac" d="M32 38.4V64l32-19.2V19.2z">
</path>
<path fill="#d3976e" d="M0 19.2l32 19.2l32-19.2L32 0z">
</path>
<path fill="#89664c" d="M50.9 27L19 7.8l-6 3.6l32 19.2z">
</path>
<path fill="#d0d0d0" d="M39.3 6.8l-7.1-4.4L26.3 6l7.1 4.3z">
</path>
<path fill="#d3976e" d="M50.8 27.1l-5.6 3.4v9.2l5.6-3.4z">
</path>
<g fill="#ffffff">
<path d="M62.5 22.1l-5.7 3.4v9.2l5.7-3.4z">
</path>
<path d="M41.6 43.5l-7.7 4.6v12.6l7.7-4.7z">
</path>
</g>
<path fill="#d3976e" d="M45.2 56.1l5.6-3.4v-9.2l-5.6 3.4z">
</path>
</svg>